{"title":"The.Berlin.File.2013.480p.BRRip.x264-Fastbet99","uid":8743455,"size":1154841084,"categoryP":"video","categoryS":"movies","magnet":"?xt=urn:btih:36bce2c2c4d99ea68b6eace7dc76247320319ddd&amp;dn=The.Berlin.File.2013.480p.BRRip.x264-Fastbet99&amp;tr=udp%3A%2F%2Ftracker.openbittorrent.com%3A80&amp;tr=udp%3A%2F%2Fopen.demonii.com%3A1337&amp;tr=udp%3A%2F%2Ftracker.coppersurfer.tk%3A6969&amp;tr=udp%3A%2F%2Fexodus.desync.com%3A6969","seeders":1,"leechers":0,"uploader":"Fastbet99","files":-1,"time":1374856217,"description":"The Berlin File (2013)\n\nIMDB Info\t\t\t\t : http://www.imdb.com/title/tt2357377/\n\nSource\t\t\t\t\t : 720p-CHD (Thanks)\nComplete name                            : The.Berlin.File.2013.480p.BRRip.x264-Fastbet99.mp4\nFormat                                   : MPEG-4\nFormat profile                           : Base Media\nCodec ID                                 : isom\nFile size                                : 1.08 GiB\nDuration                                 : 2h 0mn\nOverall bit rate mode                    : Variable\nOverall bit rate                         : 1 274 Kbps\n\nVideo\nID                                       : 1\nFormat                                   : AVC\nFormat/Info                              : Advanced Video Codec\nFormat profile                           : &lt;a class=&quot;__cf_email__&quot; href=&quot;/cdn-cgi/l/email-protection&quot; data-cfemail=&quot;4c04252b240c0078627d&quot;&gt;[email&amp;#160;protected]&lt;/a&gt;&lt;script cf-hash='f9e31' type=&quot;text/javascript&quot;&gt;\n/* &lt;![CDATA[ */!function(){try{var t=&quot;currentScript&quot;in document?document.currentScript:function(){for(var t=document.getElementsByTagName(&quot;script&quot;),e=t.length;e--;)if(t[e].getAttribute(&quot;cf-hash&quot;))return t[e]}();if(t&amp;&amp;t.previousSibling){var e,r,n,i,c=t.previousSibling,a=c.getAttribute(&quot;data-cfemail&quot;);if(a){for(e=&quot;&quot;,r=parseInt(a.substr(0,2),16),n=2;a.length-n;n+=2)i=parseInt(a.substr(n,2),16)^r,e+=String.fromCharCode(i);e=document.createTextNode(e),c.parentNode.replaceChild(e,c)}}}catch(u){}}();/* ]]&gt; */&lt;/script&gt;\nFormat settings, CABAC                   : Yes\nFormat settings, ReFrames                : 4 frames\nCodec ID                                 : avc1\nCodec ID/Info                            : Advanced Video Coding\nDuration                                 : 2h 0mn\nBit rate                                 : 1 174 Kbps\nMaximum bit rate                         : 12.6 Mbps\nWidth                                    : 854 pixels\nHeight                                   : 368 pixels\nDisplay aspect ratio                     : 2.35:1\nOriginal display aspect ratio            : 2.35:1\nFrame rate mode                          : Constant\nFrame rate                               : 23.976 fps\nColor space                              : YUV\nChroma subsampling                       : 4:2:0\nBit depth                                : 8 bits\nScan type                                : Progressive\nBits/(Pixel*Frame)                       : 0.156\nStream size                              : 1 015 MiB (92%)\nWriting library                          : x264 core 133 r2334 a3ac64b\n\nAudio\nID                                       : 2\nFormat                                   : AAC\nFormat/Info                              : Advanced Audio Codec\nFormat profile                           : LC\nCodec ID                                 : 40\nDuration                                 : 2h 0mn\nBit rate mode                            : Variable\nBit rate                                 : 96.0 Kbps\nMaximum bit rate                         : 154 Kbps\nChannel(s)                               : 2 channels\nChannel positions                        : Front: L R\nSampling rate                            : 48.0 KHz\nCompression mode                         : Lossy\nStream size                              : 82.9 MiB (8%)\nLanguage                                 : Korean\nEncoder\t\t\t\t\t : Fastbet99\n\nScreenshots &lt;a href=&quot;\nhttp://lookpic.com/O/i2/1292/cVSE4Ob.jpeg&quot; rel=&quot;nofollow&quot; target=&quot;_NEW&quot;&gt;\nhttp://lookpic.com/O/i2/1292/cVSE4Ob.jpeg&lt;/a&gt;\n","torrent":{"xt":"urn:btih:36bce2c2c4d99ea68b6eace7dc76247320319ddd","amp;dn":"The.Berlin.File.2013.480p.BRRip.x264-Fastbet99","amp;tr":["udp%3A%2F%2Ftracker.openbittorrent.com%3A80","udp%3A%2F%2Fopen.demonii.com%3A1337","udp%3A%2F%2Ftracker.coppersurfer.tk%3A6969","udp%3A%2F%2Fexodus.desync.com%3A6969"],"infoHash":"36bce2c2c4d99ea68b6eace7dc76247320319ddd","infoHashBuffer":{"type":"Buffer","data":[54,188,226,194,196,217,158,166,139,110,172,231,220,118,36,115,32,49,157,221]},"announce":[],"urlList":[]}}